<svg width="180" height="180" viewBox="0 0 180 180" fill="none" xmlns="http://www.w3.org/2000/svg">
  <rect width="180" height="180" fill="#000000"/>
  <g transform="translate(28, 18) scale(0.217)">
    <path d="M285.999 0L411.949 188.789L319.191 188.789L319.191 332.495L252.807 332.495L252.807 188.789L160.05 188.789L285.999 0L285.999 0ZM251.898 428.299L125.949 239.509L0 428.299L92.7567 428.299L92.7567 572.004L159.141 572.004L159.141 428.299L251.898 428.299L251.898 428.299ZM446.052 239.509L572.001 428.299L479.245 428.299L479.245 572.004L412.86 572.004L412.86 428.299L320.103 428.299L446.052 239.509L446.052 239.509Z" fill="#ffffff" fill-rule="evenodd" />
  </g>
</svg>
